# xmcd CD database file generated by Grip 3.3.1
# 
# Track frame offsets:
#       150
#       20295
#       35872
#       55732
#       104675
#       120460
#       135937
#       156201
#       178232
#       207239
#       235557
#       254442
# 
# Disc length: 3624 seconds
# 
# Revision: 1
# Processed by: cddbd v1.5.2PL0 Copyright (c) Steve Scherf et al.
# Submitted via: Grip 3.3.1
# 
DISCID=a00e260c
DTITLE=Sviatoslav Richter, piano - Rimsky-Korsakov - The legend of the I
DTITLE=nvisible City of Kitezh, Pan Voyevoda (Suites), Piano Concert Op.
DTITLE=30
DYEAR=2012
DGENRE=Classical
TTITLE0=I. Prelude - Hymn to nature - The legend of the Invisible City of
TTITLE0=Kitezh Suite
TTITLE1=II. Bridal procession - The legend of the Invisible City of Kitez
TTITLE1=h Suite
TTITLE2=III. Tartar invasion and the battle of Kerzenets - The legend of 
TTITLE2=the Invisible City of Kitezh Suite
TTITLE3=IV. Death of Frevronya and Apotheosis - The legend of the Invisib
TTITLE3=le City of Kitezh Suite
TTITLE4=I. Introduction - Pan Voyevoda, Suite Op.59
TTITLE5=II. Krakowiak - Pan Voyevoda, Suite Op.59
TTITLE6=III. Nocturne - Pan Voyevoda, Suite Op.59
TTITLE7=IV. Mazurka - Pan Voyevoda, Suite Op.59
TTITLE8=V. Polonaise - Pan Voyevoda, Suite Op.59
TTITLE9=I. Moderato - Allegretto quasi polacca - Piano Concerto in C shar
TTITLE9=p minor, Op.30
TTITLE10=II. Andante mosso - Piano Concerto in C sharp minor, Op.30
TTITLE11=III. Allegro - Piano Concerto in C sharp minor, Op.30
EXTD=
EXTT0=
EXTT1=
EXTT2=
EXTT3=
EXTT4=
EXTT5=
EXTT6=
EXTT7=
EXTT8=
EXTT9=
EXTT10=
EXTT11=
PLAYORDER=
